<?xml version="1.0" encoding="UTF-8"?>
<svg width="12px" height="12px" viewBox="0 0 12 12" version="1.1" xmlns="http://www.w3.org/2000/svg" xmlns:xlink="http://www.w3.org/1999/xlink">
    <!-- Generator: Sketch 44.1 (41455) - http://www.bohemiancoding.com/sketch -->
    <title>辅助属性</title>
    <desc>Created with Sketch.</desc>
    <defs></defs>
    <g id="图" stroke="none" stroke-width="1" fill="none" fill-rule="evenodd">
        <path d="M2.08535285,9.5 L0.5,9.5 L0.5,9.5 C0.223857625,9.5 -3.38176876e-17,9.72385763 0,10 C3.38176876e-17,10.2761424 0.223857625,10.5 0.5,10.5 L2.08535285,10.5 C2.29127106,11.0825962 2.84689059,11.5 3.5,11.5 C4.15310941,11.5 4.70872894,11.0825962 4.91464715,10.5 L11.5,10.5 C11.7761424,10.5 12,10.2761424 12,10 C12,9.72385763 11.7761424,9.5 11.5,9.5 L4.91464715,9.5 C4.70872894,8.91740381 4.15310941,8.5 3.5,8.5 C2.84689059,8.5 2.29127106,8.91740381 2.08535285,9.5 Z M7.08535285,5.5 L0.5,5.5 L0.5,5.5 C0.223857625,5.5 -3.38176876e-17,5.72385763 0,6 C3.38176876e-17,6.27614237 0.223857625,6.5 0.5,6.5 L7.08535285,6.5 C7.29127106,7.08259619 7.84689059,7.5 8.5,7.5 C9.15310941,7.5 9.70872894,7.08259619 9.91464715,6.5 L11.5,6.5 C11.7761424,6.5 12,6.27614237 12,6 C12,5.72385763 11.7761424,5.5 11.5,5.5 L9.91464715,5.5 C9.70872894,4.91740381 9.15310941,4.5 8.5,4.5 C7.84689059,4.5 7.29127106,4.91740381 7.08535285,5.5 Z M2.08535285,1.5 L0.5,1.5 L0.5,1.5 C0.223857625,1.5 -3.38176876e-17,1.72385763 0,2 C3.38176876e-17,2.27614237 0.223857625,2.5 0.5,2.5 L2.08535285,2.5 C2.29127106,3.08259619 2.84689059,3.5 3.5,3.5 C4.15310941,3.5 4.70872894,3.08259619 4.91464715,2.5 L11.5,2.5 C11.7761424,2.5 12,2.27614237 12,2 C12,1.72385763 11.7761424,1.5 11.5,1.5 L4.91464715,1.5 C4.70872894,0.917403814 4.15310941,0.5 3.5,0.5 C2.84689059,0.5 2.29127106,0.917403814 2.08535285,1.5 Z" id="Combined-Shape" fill="#AAB4BE"></path>
    </g>
</svg>