<?xml version="1.0" encoding="UTF-8"?>
<svg width="12px" height="12px" viewBox="0 0 12 12" version="1.1" xmlns="http://www.w3.org/2000/svg" xmlns:xlink="http://www.w3.org/1999/xlink">
    <!-- Generator: Sketch 44.1 (41455) - http://www.bohemiancoding.com/sketch -->
    <title>属性</title>
    <desc>Created with Sketch.</desc>
    <defs></defs>
    <g id="图" stroke="none" stroke-width="1" fill="none" fill-rule="evenodd">
        <g id="商品管理" transform="translate(-420.000000, -112.000000)" fill="#61A7E5">
            <g id="Group-15" transform="translate(232.000000, 90.000000)">
                <g id="Group-14-Copy-9" transform="translate(180.000000, 14.000000)">
                    <g id="属性" transform="translate(8.000000, 8.000000)">
                        <path d="M6,12 C2.6862915,12 0,9.3137085 0,6 C0,2.6862915 2.6862915,0 6,0 C9.3137085,0 12,2.6862915 12,6 C12,9.3137085 9.3137085,12 6,12 Z M5.51953398,5.3792 L4.67551456,7.52623415 C4.59082524,7.73366829 4.18056311,8.7343122 4.18056311,9.31971707 C4.18056311,9.7833561 4.48229126,9.99025366 4.91645631,9.99025366 C6.13478641,9.99025366 7.54627184,8.47757073 7.54627184,8.1239122 C7.54627184,8.01438049 7.46158252,7.94101463 7.40169903,7.94101463 C7.23281553,7.94101463 6.56895146,8.97783415 6.20726214,8.97783415 C6.11039806,8.97783415 6.06272816,8.89227317 6.06272816,8.80718049 C6.06272816,8.61201951 6.19508738,8.30683902 6.26759223,8.1239122 L7.13596117,5.7455122 C7.57061165,4.56190244 7.01524272,4.2444878 6.4968932,4.2444878 C5.79695146,4.2444878 5.16956311,4.5986439 4.68723301,5.06228293 C4.53053398,5.22070244 4,5.73279024 4,5.95240976 C4,6.02573659 4.07201942,6.11136585 4.15670874,6.11136585 C4.37329126,6.11136585 4.95247573,5.05004878 5.39885437,5.05004878 C5.49567961,5.05004878 5.60425243,5.15961951 5.51953398,5.3792 Z M6.1707767,2.97581463 C6.1707767,3.4761561 6.4968932,3.80580488 6.99138835,3.80580488 C7.53409709,3.80580488 7.99256311,3.39109268 7.99256311,2.82959024 C7.99256311,2.32923902 7.64270874,2.00012683 7.15981553,2.00012683 C6.62928155,2.00012683 6.1707767,2.43930732 6.1707767,2.97581463 Z" id="Combined-Shape"></path>
                    </g>
                </g>
            </g>
        </g>
    </g>
</svg>