<?xml version="1.0" encoding="UTF-8"?>
<svg width="12px" height="13px" viewBox="0 0 12 13" version="1.1" xmlns="http://www.w3.org/2000/svg" xmlns:xlink="http://www.w3.org/1999/xlink">
    <!-- Generator: Sketch 44.1 (41455) - http://www.bohemiancoding.com/sketch -->
    <title>客户同步</title>
    <desc>Created with Sketch.</desc>
    <defs></defs>
    <g id="图" stroke="none" stroke-width="1" fill="none" fill-rule="evenodd">
        <path d="M3.6037401,6.65605872 C3.59531154,6.64940517 3.58710224,6.64242672 3.57872849,6.63570253 C3.56961466,6.63426164 3.56055567,6.63266534 3.55146925,6.63123857 C3.55743092,6.63024973 3.56332408,6.62909135 3.56923093,6.62803186 C2.64443166,5.88068675 2.04975828,4.71908382 2.04975828,3.41382914 C2.04975828,2.85033962 2.16053574,2.31342194 2.36088904,1.8250992 C1.41934227,2.16482593 0.743987585,3.08851137 0.743987585,4.17500402 C0.743987585,5.41192912 1.61929812,6.43796061 2.76633758,6.63123854 C1.20680522,6.86601998 -0.000330629464,8.48091208 -0.000330629464,10.4383279 L1.12471231,10.4383279 C1.49384261,8.8060038 2.40260704,7.44490732 3.6037401,6.65605872 L3.6037401,6.65605872 Z M6.54861433,6.78537214 C8.12116642,6.5203884 9.32134014,5.11362114 9.32134014,3.41777042 C9.32134014,1.53295033 7.83898061,0.00503473103 6.01044664,0.00503473103 C4.18183045,0.00503473103 2.69945721,1.53296447 2.69945721,3.41777042 C2.69945721,5.11369176 3.89963092,6.5203884 5.47223784,6.78537214 C3.33409436,7.1072148 1.67906562,9.32132216 1.67906562,12.0050347 L10.3417455,12.0050347 C10.3417454,9.32132216 8.68675781,7.10722893 6.54861433,6.78537214 L6.54861433,6.78537214 Z M9.2323262,6.63116795 C10.3792971,6.43789002 11.2546762,5.41191502 11.2546762,4.17493342 C11.2546762,3.09845642 10.5916971,2.1816788 9.66367718,1.83449332 C9.8616184,2.3203298 9.97105278,2.85387127 9.97105278,3.41382916 C9.97105278,4.73531513 9.36176987,5.90985787 8.41704354,6.65597398 C9.6181903,7.44490733 10.5269684,8.80600382 10.8961398,10.4383279 L11.9989807,10.4383279 C11.9989807,8.48096858 10.7918311,6.86601998 9.2323262,6.63116795 L9.2323262,6.63116795 Z" id="客户同步" fill="#61A7E5" fill-rule="nonzero"></path>
    </g>
</svg>