<?xml version="1.0" encoding="utf-8"?>
<!-- Generator: Adobe Illustrator 19.0.0, SVG Export Plug-In . SVG Version: 6.00 Build 0)  -->
<svg version="1.1" id="图层_1" xmlns="http://www.w3.org/2000/svg" xmlns:xlink="http://www.w3.org/1999/xlink" x="0px" y="0px"
	 viewBox="14.5 14 22 22" style="enable-background:new 14.5 14 22 22;" xml:space="preserve">
<path fill="#c0ddf8" d="M28,19.4c-0.9,0-1.8,0.4-2.4,1.1c-0.6-0.7-1.5-1.1-2.4-1.1c-2,0-3.6,1.7-3.6,3.9c0,4,6,8.1,6,8.1s6-4.1,6-8.1
	C31.5,21.1,30,19.4,28,19.4L28,19.4z M25.7,30.4c0,0-5.1-4.3-5.1-7.2c0-1.8,0.9-2.8,2.6-2.8c0.7,0,2,0.8,2.5,1.2
	c0.5-0.5,1.8-1.3,2.5-1.3c1.5,0,2.5,1,2.5,2.9C30.5,26.1,25.7,30.4,25.7,30.4L25.7,30.4z"/>
</svg>
