<?xml version="1.0" encoding="utf-8"?>
<!-- Generator: Adobe Illustrator 19.0.0, SVG Export Plug-In . SVG Version: 6.00 Build 0)  -->
<svg version="1.1" id="图层_1" xmlns="http://www.w3.org/2000/svg" xmlns:xlink="http://www.w3.org/1999/xlink" x="0px" y="0px"
	 viewBox="65.2 -7.4 34 34" style="enable-background:new 65.2 -7.4 34 34;" xml:space="preserve">
<style type="text/css">
	.st0{fill:#fff;}
</style>
<g>
	<g>
		<path class="st0"  d="M82.2-5.4l-16,11.5l6.1,18.5h19.8l6.1-18.5L82.2-5.4z M88.2,14.5c-0.4,0.6-0.8,1.2-1.4,1.7
			c0.6,1.2,1.2,2.4,1.8,3.6c-1.1,0.8-2.3,1.3-3.6,1.7c-0.6-1.2-1.2-2.4-1.8-3.6c-0.7,0.1-1.5,0.1-2.3,0c-0.6,1.2-1.2,2.4-1.8,3.6
			c-1.3-0.4-2.5-0.9-3.5-1.7c0.6-1.2,1.2-2.4,1.8-3.6c-0.5-0.5-1-1-1.3-1.6c-1.3,0.3-2.6,0.6-4,0.9c-0.5-1.2-0.8-2.5-0.9-3.8
			c1.3-0.3,2.6-0.6,4-0.9c0-0.7,0.2-1.4,0.5-2.1c-1-0.9-2-1.7-3.1-2.6c0.6-1.2,1.5-2.2,2.5-3.1c1.1,0.8,2.1,1.7,3.2,2.5
			c0.6-0.4,1.3-0.7,2-0.9v-4c1.3-0.2,2.7-0.2,4,0v4c0.7,0.2,1.4,0.5,2,0.9c1.1-0.8,2.1-1.7,3.2-2.5c1,0.9,1.8,1.9,2.5,3.1
			c-1.3,0.9-2.3,1.7-3.4,2.5c0.3,0.7,0.4,1.4,0.5,2.1c1.3,0.3,2.6,0.6,4,0.9c-0.1,1.3-0.4,2.6-0.9,3.8
			C90.9,15.1,89.6,14.8,88.2,14.5z M82.2,7.3c-2.2,0-4,1.7-4,3.9s1.8,3.9,4,3.9s4-1.7,4-3.9S84.4,7.3,82.2,7.3z"/>
	</g>
</g>
</svg>
