<?xml version="1.0" encoding="utf-8"?>
<!-- Generated by IcoMoon.io -->
<!DOCTYPE svg PUBLIC "-//W3C//DTD SVG 1.1//EN" "http://www.w3.org/Graphics/SVG/1.1/DTD/svg11.dtd">
<svg version="1.1" xmlns="http://www.w3.org/2000/svg" xmlns:xlink="http://www.w3.org/1999/xlink" width="32" height="416" viewBox="0 0 32 416">


<svg id="icon-center" width="32" height="32" viewBox="0 0 24 24" x="0" y="0">
<path fill="#bed9f1" d="M14.72 15.104h-3.84c-0.384 0-0.64 0.256-0.64 0.64v3.84c0 0.384 0.256 0.64 0.64 0.64h3.84c0.384 0 0.64-0.256 0.64-0.64v-3.84c0-0.384-0.32-0.64-0.64-0.64zM14.72 8.704h-3.84c-0.384 0-0.64 0.256-0.64 0.64v3.84c0 0.384 0.256 0.64 0.64 0.64h3.84c0.384 0 0.64-0.256 0.64-0.64v-3.84c0-0.384-0.32-0.64-0.64-0.64zM21.12 15.104h-3.84c-0.384 0-0.64 0.256-0.64 0.64v3.84c0 0.384 0.256 0.64 0.64 0.64h3.84c0.384 0 0.64-0.256 0.64-0.64v-3.84c0-0.384-0.32-0.64-0.64-0.64z"></path>
<path fill="#609fd6" d="M15.872 10.752l2.56-2.624c0.256-0.256 0.64-0.256 0.832 0l2.56 2.624c0.256 0.256 0.256 0.64 0 0.896l-2.56 2.624c-0.256 0.256-0.64 0.256-0.832 0l-2.56-2.624c-0.192-0.256-0.192-0.64 0-0.896z"></path>
</svg>
<svg id="icon-heart" width="32" height="32" viewBox="0 0 22 22" x="0" y="48">
<path fill="#c0ddf8" d="M17.216 13.76c-0.576 0-1.152 0.256-1.536 0.704-0.384-0.448-0.96-0.704-1.536-0.704-1.28 0-2.304 1.088-2.304 2.496 0 2.56 3.84 5.184 3.84 5.184s3.84-2.624 3.84-5.184c0-1.408-1.024-2.496-2.304-2.496v0zM15.744 20.8c0 0-3.264-2.752-3.264-4.608 0-1.152 0.576-1.792 1.664-1.792 0.448 0 1.28 0.512 1.6 0.768 0.32-0.32 1.152-0.832 1.6-0.832 0.96 0 1.6 0.64 1.6 1.856-0.064 1.856-3.2 4.608-3.2 4.608v0z"></path>
</svg>
<svg id="icon-message" width="32" height="32" viewBox="0 0 24 24" x="0" y="96">
    <path fill="#bed9f1" d="M19.84 22.4h-7.68c-0.704 0-1.28-0.576-1.28-1.28v-10.24c0-0.704 0.576-1.28 1.28-1.28h7.68c0.704 0 1.28 0.576 1.28 1.28v10.24c0 0.704-0.576 1.28-1.28 1.28zM19.2 12.16h-6.4v2.56h6.4v-2.56zM19.2 16.64h-6.4v0.64h6.4v-0.64zM19.2 19.2h-6.4v0.64h6.4v-0.64z"></path>
    <path fill="#609fd6" d="M13.44 12.8h5.12v1.28h-5.12v-1.28z"></path>
</svg>
<svg id="icon-sale" width="32" height="32" viewBox="0 0 24 24" x="0" y="144">
    <path fill="#bed9f1" d="M19.264 21.248v-5.76h1.92v5.76h-1.92zM12.864 9.728h1.92v11.52h-1.92v-11.52zM9.664 14.208h1.92v7.040h-1.92v-7.040z"></path>
    <path fill="#609fd6" d="M16 12.288h1.92v8.96h-1.92v-8.96z"></path>
</svg>


<svg id="icon-store" width="32" height="32" viewBox="0 0 24 24" x="0" y="192">
    <path fill="#bed9f1" d="M23.36 10.56v5.76h-10.24v-5.76c-0.768 0-1.28 0-1.28 0l6.4-5.76 6.4 5.76c0 0-0.512 0-1.28 0zM22.080 10.56c-2.24 0-5.44 0-7.68 0v4.48h7.68v-4.48zM18.24 12.48h-2.56v-1.28h2.56v1.28zM21.44 12.48h-2.56v-1.28h2.56v1.28zM21.44 14.4h-2.56v-1.28h2.56v1.28z"></path>
    <path fill="#609fd6" d="M15.68 13.12h2.56v1.28h-2.56v-1.28z"></path>
</svg>
<svg id="icon-table" width="32" height="32" viewBox="0 0 24 24" x="0" y="240">
    <path fill="#bed9f1" d="M12.8 16v-5.376c-2.944 0-5.376 2.368-5.376 5.376s2.368 5.376 5.376 5.376c2.944 0 5.376-2.368 5.376-5.376 0-0.832-0.192-1.664-0.576-2.368l-4.8 2.368zM18.368 12.096v0z"></path>
    <path fill="#609fd6" d="M18.368 12.032c-0.896-1.728-2.688-2.944-4.8-2.944v5.376l4.8-2.432z"></path>
</svg>
<svg id="icon-heart" width="32" height="32" viewBox="0 0 22 22" x="0" y="288">
    <path fill="#61a7e5" d="M17.216 13.76c-0.576 0-1.152 0.256-1.536 0.704-0.384-0.448-0.96-0.704-1.536-0.704-1.28 0-2.304 1.088-2.304 2.496 0 2.56 3.84 5.184 3.84 5.184s3.84-2.624 3.84-5.184c0-1.408-1.024-2.496-2.304-2.496v0zM15.744 20.8c0 0-3.264-2.752-3.264-4.608 0-1.152 0.576-1.792 1.664-1.792 0.448 0 1.28 0.512 1.6 0.768 0.32-0.32 1.152-0.832 1.6-0.832 0.96 0 1.6 0.64 1.6 1.856-0.064 1.856-3.2 4.608-3.2 4.608v0z"></path>
</svg>

<svg id="icon-micro" width="32" height="32" viewBox="0 0 36 36" x="0" y="336">
  <path d="M9.5504364,1.0072597 L19.7003382,5.0806334 L10.0003262,8.96395342 L0.050283964,5.03370458 L9.5504364,1.0072597 Z M2.94987911,9.20249485 L6.69970717,10.8628058 L6.69970717,12.1424949 L2.94987911,10.4821839 L2.94987911,9.20249485 Z" id="Combined-Shape" fill="#61A7E5"></path>
  <path d="M10.6005573,9.77061317 L20,5.93346939 L20,14.602132 L10.6005573,19.0072597 L10.6005573,9.77061317 Z M0,14.8384694 L0,6.1221523 L9.40020845,9.77061317 L9.40020845,19.0072597 L0,14.8384694 Z M7.19970717,10.5373715 L2.44987911,8.43429065 L2.44987911,10.8076182 L7.19970717,12.9106991 L7.19970717,10.5373715 Z" id="Combined-Shape" fill="#C0DDF8"></path>
</svg> 


<svg id="icon-purchase" width="32" height="32" viewBox="0 0 34 34" x="0" y="384">
     <path d="M3.0805638,2.69163381 L3.0805638,2.69163381 C3.50124908,2.27434514 4.19020702,2.27434514 4.6064591,2.69163381 L10.1801661,8.23407951 C10.5997218,8.65253409 10.5997218,9.33501358 10.1801661,9.75179349 L10.1801661,9.75179349 C9.76280575,10.1712656 9.07602178,10.1712656 8.6542282,9.75179349 L3.0805638,4.21206117 C2.6631821,3.79362779 2.6631821,3.11167826 3.0805638,2.69163381 L3.0805638,2.69163381 Z M17.7567639,8.16270481 L10.9486446,8.16270481 C11.3063699,8.82103943 11.2091805,9.66282419 10.6505331,10.2195553 C9.97035633,10.8954845 8.86510368,10.8954845 8.18612044,10.2195553 L6.11916137,8.16270481 L1.24327868,8.16270481 C0.560906608,8.16270481 0,8.7200295 0,9.39926565 L0,9.39926565 C0,10.0789894 0.560885294,10.6363352 1.24327868,10.6363352 L1.5413902,10.6363352 L4.4099489,19 L14.757916,19 L17.6264534,10.6363352 L17.7567639,10.6363352 C18.4413313,10.6363352 19,10.0790106 19,9.39926565 L19,9.39926565 C19,8.7200295 18.4413313,8.16270481 17.7567639,8.16270481 L17.7567639,8.16270481 Z M4.50072305,11.4160514 L14.2613072,11.4160514 C14.6028861,11.4160514 14.8799681,11.6409583 14.8799681,11.9160263 L14.8799681,11.9160263 C14.8799681,12.1911444 14.6028861,12.4160514 14.2613072,12.4160514 L4.50072305,12.4160514 C4.15920626,12.4160514 3.87996814,12.1911611 3.87996814,11.9160263 L3.87996814,11.9160263 C3.87994741,11.6409583 4.15920626,11.4160514 4.50072305,11.4160514 L4.50072305,11.4160514 Z M5.92041326,16.4500769 L13.2143518,16.4500769 C13.563232,16.4500769 13.8503245,16.6763221 13.8503245,16.950927 L13.8503245,16.950927 C13.8503245,17.2255486 13.563232,17.4500769 13.2143518,17.4500769 L5.92041326,17.4500769 C5.57038213,17.4500769 5.282224,17.2255486 5.282224,16.950927 L5.282224,16.950927 C5.282224,16.6763221 5.57040344,16.4500769 5.92041326,16.4500769 L5.92041326,16.4500769 Z M5.21926401,13.9725884 L13.9783545,13.9725884 C14.3294939,13.9725884 14.6165864,14.1988261 14.6165864,14.4751721 L14.6165864,14.4751721 C14.6165864,14.7497846 14.3294939,14.9725884 13.9783545,14.9725884 L5.21926401,14.9725884 C4.86812458,14.9725884 4.58437835,14.7497846 4.58437835,14.4751721 L4.58437835,14.4751721 C4.58437835,14.1988261 4.86812458,13.9725884 5.21926401,13.9725884 Z" id="Shape" fill="#C0DDF8" fill-rule="nonzero"></path>
     <polygon id="Path" fill="#61A7E5" points="10.2574275 1.50623029e-16 10.2574275 3.62064961 8.43785385 3.62064961 12.0770863 7.24074805 15.7185141 3.62064961 13.8988979 3.62064961 13.8988979 0 10.2574488 0"></polygon>
</svg>

</svg>

