<?xml version="1.0" encoding="UTF-8"?>
<svg width="12px" height="12px" viewBox="0 0 12 12" version="1.1" xmlns="http://www.w3.org/2000/svg" xmlns:xlink="http://www.w3.org/1999/xlink">
    <!-- Generator: Sketch 46.2 (44496) - http://www.bohemiancoding.com/sketch -->
    <title>订单编号</title>
    <desc>Created with Sketch.</desc>
    <defs></defs>
    <g id="Page-1" stroke="none" stroke-width="1" fill="none" fill-rule="evenodd">
        <g id="Artboard" transform="translate(-206.000000, -153.000000)" fill="#A9B3BC">
            <path d="M209.748502,160.030334 L208.804777,160.030334 L208.672299,160.917334 L209.606516,160.917334 L209.338902,162.58914 L210.361337,162.58914 L210.627663,160.917334 L211.986419,160.917334 L211.714075,162.60052 L212.73651,162.60052 L212.999249,160.917334 L214.054572,160.917334 L214.19237,160.030334 L213.137707,160.030334 L213.537128,157.471525 L214.715447,157.471525 L214.856077,156.566398 L213.678415,156.566398 L213.936833,154.910899 L212.958279,154.910899 L212.690414,156.566398 L211.320784,156.566398 L211.58884,154.883729 L210.572342,154.883729 L210.302989,156.566398 L209.227356,156.566398 L209.079672,157.471525 L210.158102,157.471525 L209.748502,160.030334 Z M210.768965,160.030334 L211.176594,157.471525 L212.543962,157.471525 L212.129939,160.030334 L210.768965,160.030334 Z M212,165 C208.686292,165 206,162.313708 206,159 C206,155.686292 208.686292,153 212,153 C215.313708,153 218,155.686292 218,159 C218,162.313708 215.313708,165 212,165 Z" id="订单编号"></path>
        </g>
    </g>
</svg>