<?xml version="1.0" encoding="UTF-8"?>
<svg width="28px" height="28px" viewBox="0 0 28 28" version="1.1" xmlns="http://www.w3.org/2000/svg" xmlns:xlink="http://www.w3.org/1999/xlink">
    <!-- Generator: Sketch 41 (35326) - http://www.bohemiancoding.com/sketch -->
    <title>批号</title>
    <desc>Created with Sketch.</desc>
    <defs></defs>
    <g id="icons" stroke="none" stroke-width="1" fill="none" fill-rule="evenodd">
        <g id="批号" fill="#A9B3BC">
            <path d="M8,9.00247329 C8,8.44882258 8.44266033,8 8.99895656,8 L10.0010434,8 C10.5527519,8 11,8.45576096 11,9.00247329 L11,18.9975267 C11,19.5511774 10.5573397,20 10.0010434,20 L8.99895656,20 C8.44724809,20 8,19.544239 8,18.9975267 L8,9.00247329 Z M12,8.50034732 C12,8.22401312 12.2319336,8 12.5,8 C12.7761424,8 13,8.22900057 13,8.50034732 L13,19.4996527 C13,19.7759869 12.7680664,20 12.5,20 C12.2238576,20 12,19.7709994 12,19.4996527 L12,8.50034732 Z M17,9.00247329 C17,8.44882258 17.4426603,8 17.9989566,8 L19.0010434,8 C19.5527519,8 20,8.45576096 20,9.00247329 L20,18.9975267 C20,19.5511774 19.5573397,20 19.0010434,20 L17.9989566,20 C17.4472481,20 17,19.544239 17,18.9975267 L17,9.00247329 Z M14,9.00247329 C14,8.44882258 14.4438648,8 15,8 C15.5522847,8 16,8.45576096 16,9.00247329 L16,18.9975267 C16,19.5511774 15.5561352,20 15,20 C14.4477153,20 14,19.544239 14,18.9975267 L14,9.00247329 Z" id="Combined-Shape"></path>
        </g>
    </g>
</svg>