<?xml version="1.0" encoding="UTF-8"?>
<svg width="20px" height="20px" viewBox="0 0 20 20" version="1.1" xmlns="http://www.w3.org/2000/svg" xmlns:xlink="http://www.w3.org/1999/xlink">
    <!-- Generator: Sketch 44.1 (41455) - http://www.bohemiancoding.com/sketch -->
    <title>报表 表尾管理</title>
    <desc>Created with Sketch.</desc>
    <defs></defs>
    <g id="图" stroke="none" stroke-width="1" fill="none" fill-rule="evenodd">
        <g id="规范" transform="translate(-573.000000, -1027.000000)" fill-rule="nonzero" fill="#AAB4BE">
            <g id="Group-4-Copy" transform="translate(573.000000, 1027.000000)">
                <g id="报表-表尾管理">
                    <path d="M11.125,2.25 L11.125,0 L8.875,0 L8.875,2.25 L0,2.25 L0,4.5 L1.125,4.5 L1.125,15.75 L8.125,15.75 L3.75,19.125 L4.5,20 L9.875,15.625 L9.875,15.625 L15.25,20 L16,19.125 L11.75,15.625 L18.875,15.625 L18.875,4.375 L20,4.375 L20,2.25 L11.125,2.25 Z M17.75,14.5 L2.25,14.5 L2.25,4.5 L17.75,4.5 L17.75,14.5 Z M5.5,12.25 L5.5,8.875 L8.875,8.875 C8.875,7.25 7.5,6 5.875,6 C4.25,6 2.875,7.375 2.875,9 C3,10.625 3.875,12.25 5.5,12.25 Z M6.625,13.375 C8.375,13.375 10,11.625 10,10 L6.625,10 L6.625,13.375 Z M15.5,6.625 L12.25,6.625 L12.25,7.75 L15.625,7.75 L15.625,6.625 L15.5,6.625 Z M15.5,8.875 L12.25,8.875 L12.25,10 L15.625,10 L15.625,8.875 L15.5,8.875 Z M15.5,11.125 L12.25,11.125 L12.25,12.25 L15.625,12.25 L15.625,11.125 L15.5,11.125 Z" id="Shape"></path>
                </g>
            </g>
        </g>
    </g>
</svg>