<?xml version="1.0" encoding="UTF-8"?>
<svg width="12px" height="12px" viewBox="0 0 12 12" version="1.1" xmlns="http://www.w3.org/2000/svg" xmlns:xlink="http://www.w3.org/1999/xlink">
    <!-- Generator: Sketch 44.1 (41455) - http://www.bohemiancoding.com/sketch -->
    <title>保存</title>
    <desc>Created with Sketch.</desc>
    <defs></defs>
    <g id="图" stroke="none" stroke-width="1" fill="none" fill-rule="evenodd">
        <g id="销售出库单1" transform="translate(-324.000000, -112.000000)" fill-rule="nonzero" fill="#61A7E5">
            <g id="Group-15" transform="translate(232.000000, 90.000000)">
                <g id="Group-14-Copy-7" transform="translate(84.000000, 14.000000)">
                    <g id="Group-12-Copy-2" transform="translate(8.000000, 8.000000)">
                        <g id="保存">
                            <path d="M9,0.0105956526 L0.385326428,0.0105956526 C0.178259118,0.0105956526 0.0103981069,0.178176281 0.0103981069,0.385221448 L0.0103981069,11.6200569 C0.0103981069,11.8268149 0.178272788,11.9894317 0.385326428,11.9894317 L11.6204718,11.9894317 C11.8269648,11.9894317 11.9895609,11.8268149 11.9895609,11.6200569 L11.9895609,3 L9,0.0105956526 Z M7.83347309,4.01059565 L2.18718137,4.01059565 C2.08976308,4.01059565 2.01039811,3.92064116 2.01039811,3.80999332 L2.01039811,2.21119798 C2.01039811,2.10056481 2.08976308,2.01059565 2.18718137,2.01059565 L7.8334602,2.01059565 C7.93100734,2.01059565 8.01038521,2.10055014 8.01038521,2.21119798 L8.01038521,3.80999332 C8.01039811,3.92064116 7.93102025,4.01059565 7.83347309,4.01059565 Z M10.0103981,9.85015737 C10.0103981,9.93865161 9.93594197,10.0105957 9.84378774,10.0105957 L2.17738581,10.0105957 C2.08536547,10.0105957 2.01039811,9.93865161 2.01039811,9.85015737 L2.01039811,6.16045195 C2.01039811,6.07171158 2.08536547,6.00001367 2.17738581,6.00001367 L9.84378773,6.00001367 C9.93592978,6.00001367 10.0103981,6.07169986 10.0103981,6.16045195 L10.0103981,9.85015737 Z" id="Shape"></path>
                            <path d="M9,7.25030172 C9,7.11224079 8.88814425,7 8.74970057,7 L7.25029943,7 C7.11185575,7 7,7.11224079 7,7.25030172 L7,8.74969828 C7,8.88814322 7.11183747,9 7.25029943,9 L8.74970057,9 C8.88812595,9 9,8.8881615 9,8.74969828 L9,7.25030172 Z" id="Shape"></path>
                        </g>
                    </g>
                </g>
            </g>
        </g>
    </g>
</svg>