<?xml version="1.0" encoding="UTF-8"?>
<svg width="12px" height="12px" viewBox="0 0 12 12" version="1.1" xmlns="http://www.w3.org/2000/svg" xmlns:xlink="http://www.w3.org/1999/xlink">
    <!-- Generator: Sketch 44.1 (41455) - http://www.bohemiancoding.com/sketch -->
    <title>设置</title>
    <desc>Created with Sketch.</desc>
    <defs></defs>
    <g id="图" stroke="none" stroke-width="1" fill="none" fill-rule="evenodd">
        <path d="M0.29992231,6.99976857 C0.174260416,6.99976857 0.0680379315,6.90673455 0.0520698456,6.78245776 C-0.0173566152,6.2561907 -0.0173566152,5.7438093 0.0520698456,5.21754224 C0.0687321961,5.09326545 0.174260416,5.00023143 0.29992231,5.00023143 L0.901849725,5.00023143 C1.01709765,5.00023143 1.11776602,4.92177737 1.14484234,4.80999769 C1.26564438,4.31636195 1.461427,3.84355473 1.72524755,3.40893312 C1.78495431,3.31034483 1.76968048,3.18398519 1.68845153,3.10275399 C1.54682155,2.96112011 1.4044973,2.81879195 1.26286732,2.67715807 C1.17400145,2.58828975 1.16497601,2.44735015 1.24134512,2.34806758 C1.56417816,1.92733164 1.92727855,1.56422125 2.3480029,1.24137931 C2.44797701,1.1650081 2.58821846,1.17403379 2.67708433,1.26290211 C2.81871431,1.40453599 2.96103855,1.54686415 3.10266853,1.68849803 C3.18389749,1.76972923 3.31025365,1.78500347 3.40883922,1.72529507 C3.84344887,1.46146725 4.31624306,1.26567924 4.8098652,1.14487387 C4.9216418,1.11710252 5.0000937,1.01712567 5.0000937,0.901874566 L5.0000937,0.299930572 C5.0000937,0.174265216 5.09312516,0.0687340893 5.21739852,0.0520712798 C5.7436511,-0.0173570933 6.25601838,-0.0173570933 6.78227095,0.0520712798 C6.90654431,0.0687340893 6.99957577,0.174265216 6.99957577,0.299930572 L6.99957577,0.901874566 C6.99957577,1.01712567 7.07802767,1.11779681 7.18980427,1.14487387 C7.68342641,1.26567924 8.15622061,1.46146725 8.59083025,1.72529507 C8.68941583,1.78500347 8.81577198,1.76972923 8.89700094,1.68849803 C9.03863092,1.54686415 9.18095517,1.40453599 9.32258515,1.26290211 C9.41145102,1.17403379 9.55238673,1.1650081 9.65166657,1.24137931 C10.0723909,1.56422125 10.4354913,1.92733164 10.7583244,2.34806758 C10.8346935,2.44804443 10.825668,2.58828975 10.7368022,2.67715807 C10.5951722,2.81879195 10.4528479,2.96112011 10.3112179,3.10275399 C10.229989,3.18398519 10.2147152,3.31034483 10.2744219,3.40893312 C10.5382425,3.84355473 10.7340251,4.31636195 10.8548271,4.80999769 C10.8825977,4.92177737 10.9825718,5.00023143 11.0978197,5.00023143 L11.6997472,5.00023143 C11.8254091,5.00023143 11.9309373,5.09326545 11.9475996,5.21754224 C12.0170261,5.7438093 12.0170261,6.2561907 11.9475996,6.78245776 C11.9309373,6.90673455 11.8254091,6.99976857 11.6997472,6.99976857 L11.0978197,6.99976857 C10.9825718,6.99976857 10.8819035,7.07822263 10.8548271,7.19000231 C10.7340251,7.68363805 10.5382425,8.15644527 10.2744219,8.59106688 C10.2147152,8.68965517 10.229989,8.81601481 10.3112179,8.89724601 C10.4528479,9.03887989 10.5951722,9.18120805 10.7368022,9.32284193 C10.825668,9.41171025 10.8346935,9.55264985 10.7583244,9.65193242 C10.4354913,10.0726684 10.0723909,10.4357788 9.65166657,10.7586207 C9.55169247,10.8349919 9.41145102,10.8259662 9.32258515,10.7370979 C9.18095517,10.595464 9.03863092,10.4531358 8.89700094,10.311502 C8.81577198,10.2302708 8.68941583,10.2149965 8.59083025,10.2747049 C8.15622061,10.5385327 7.68342641,10.7343208 7.18980427,10.8551261 C7.07802767,10.8828975 6.99957577,10.9828743 6.99957577,11.0981254 L6.99957577,11.7000694 C6.99957577,11.8257348 6.90654431,11.9312659 6.78227095,11.9479287 C6.25601838,12.0173571 5.7436511,12.0173571 5.21739852,11.9479287 C5.09312516,11.9312659 5.0000937,11.8257348 5.0000937,11.7000694 L5.0000937,11.0981254 C5.0000937,10.9828743 4.9216418,10.8822032 4.8098652,10.8551261 C4.31624306,10.7343208 3.84344887,10.5385327 3.40883922,10.2747049 C3.31025365,10.2149965 3.18389749,10.2302708 3.10266853,10.311502 C2.96103855,10.4531358 2.81871431,10.595464 2.67708433,10.7370979 C2.58821846,10.8259662 2.44728274,10.8349919 2.3480029,10.7586207 C1.92727855,10.4357788 1.56417816,10.0726684 1.24134512,9.65193242 C1.16497601,9.55195557 1.17400145,9.41171025 1.26286732,9.32284193 C1.4044973,9.18120805 1.54682155,9.03887989 1.68845153,8.89724601 C1.76968048,8.81601481 1.78495431,8.68965517 1.72524755,8.59106688 C1.461427,8.15644527 1.26564438,7.68363805 1.14484234,7.19000231 C1.11707175,7.07822263 1.01709765,6.99976857 0.901849725,6.99976857 L0.29992231,6.99976857 Z M5.99914047,3.00069428 C5.20281897,3.00069428 4.44190496,3.3158991 3.8781621,3.8789632 C3.3151135,4.44272159 2.99991737,5.20365656 2.99991737,6 C2.99991737,6.79634344 3.3151135,7.55727841 3.8781621,8.1210368 C4.44190496,8.6841009 5.20281897,8.99930572 5.99914047,8.99930572 C6.79546198,8.99930572 7.55637599,8.6841009 8.12011885,8.1210368 C8.68316744,7.55727841 8.99836358,6.79634344 8.99836358,6 C8.99836358,5.20365656 8.68316744,4.44272159 8.12011885,3.8789632 C7.55637599,3.3158991 6.79546198,3.00069428 5.99914047,3.00069428 Z M5.99914047,6.99976857 C5.44699875,6.99976857 4.99939944,6.55215694 4.99939944,6 C4.99939944,5.44784306 5.44699875,5.00023143 5.99914047,5.00023143 C6.5512822,5.00023143 6.99888151,5.44784306 6.99888151,6 C6.99888151,6.55215694 6.5512822,6.99976857 5.99914047,6.99976857 Z" id="设置" fill="#61A7E5"></path>
    </g>
</svg>