<?xml version="1.0" encoding="utf-8"?>
<!-- Generated by IcoMoon.io -->
<!DOCTYPE svg PUBLIC "-//W3C//DTD SVG 1.1//EN" "http://www.w3.org/Graphics/SVG/1.1/DTD/svg11.dtd">
<svg version="1.1" xmlns="http://www.w3.org/2000/svg" xmlns:xlink="http://www.w3.org/1999/xlink" width="20" height="692" viewBox="0 0 20 692">
<svg id="icon-add" width="20" height="20" viewBox="0 0 20 20" x="0" y="0">
<path fill="#609fd6" d="M10 17c-3.9 0-7-3.1-7-7s3.1-7 7-7 7 3.1 7 7-3.1 7-7 7zM14 9h-3v-3h-2v3h-3v2h3v3h2v-3h3v-2z"></path>
</svg>
<svg id="icon-table-blue" width="20" height="20" viewBox="0 0 20 20" x="0" y="32">
<path fill="#609fd6" d="M16.9 2h-13.8c-0.6 0-1.1 0.5-1.1 1.1v13.7c0 0.7 0.5 1.2 1.1 1.2h13.7c0.6 0 1.1-0.5 1.1-1.1v-13.8c0.1-0.6-0.4-1.1-1-1.1v0zM8 10v-2h4v2h-4zM12 11v2h-4v-2h4zM4 8h3v2h-4v-2h1zM3 11h4v2h-4v-2zM3 16v-2h4v2h-4zM8 16v-2h4v2h-4zM17 16h-4v-2h4v2zM17 13h-4v-2h4v2zM17 10h-4v-2h4v2z"></path>
</svg>
<svg id="icon-chart" width="20" height="20" viewBox="0 0 20 20" x="0" y="64">
<path fill="#8a949e" d="M18 10c0-2.1-0.8-4-2.1-5.4-0.1-0.1-0.2-0.2-0.3-0.3s-0.2-0.2-0.3-0.3c-1.4-1.3-3.3-2-5.3-2-4.4 0-8 3.6-8 8s3.6 8 8 8c4.4 0 8-3.6 8-8v0 0zM10 16c-3.4 0-6-2.6-6-6s2.6-6 6-6v6h6c0 3.4-2.6 6-6 6v0z"></path>
</svg>
<svg id="icon-store" width="20" height="20" viewBox="0 0 20 20" x="0" y="96">
<path fill="#a9b3bc" d="M15.4 7.4l-5.2-3.7c-0.2-0.2-0.3-0.2-0.5-0.2s-0.3 0-0.4 0.1l-0.7 0.6-4.6 3.2c-0.2 0.1-0.3 0.4-0.3 0.6v6.7c0 0.4 0.3 0.7 0.7 0.7 0 0 1.2 0 1.9 0s1.1 0.2 1.1-1.3c0-1.5 0-3.2 0-3.2 0-0.4 0.3-0.7 0.7-0.7h3c0.4 0 0.7 0.3 0.7 0.7 0 0 0 1.3 0 3s0.3 1.5 1 1.5c0.7 0 2 0 2 0 0.4 0 0.7-0.3 0.7-0.7v-6.7c0.2-0.2 0.1-0.5-0.1-0.6v0z"></path>
</svg>
<svg id="icon-print" width="20" height="20" viewBox="0 0 20 20" x="0" y="128">
<path fill="#6ba5da" d="M4 15v4h12v-4h3v-8c0-1.112-0.893-2-1.995-2h-1.005v-4h-12v4h-1.005c-1.102 0-1.995 0.895-1.995 2v8h3zM16 14v-3h-12v3h-2v-7.003c0-0.551 0.445-0.997 1.001-0.997h13.998c0.553 0 1.001 0.453 1.001 0.997v7.003h-2zM5 12h10v6h-10v-6zM5 2h10v3h-10v-3zM5 8.5c0-0.276 0.228-0.5 0.491-0.5h5.018c0.271 0 0.491 0.232 0.491 0.5 0 0.276-0.228 0.5-0.491 0.5h-5.018c-0.271 0-0.491-0.232-0.491-0.5z"></path>
</svg>
<svg id="icon-share" width="20" height="20" viewBox="0 0 20 20" x="0" y="160">
<path fill="#6ba5da" d="M7.529 7.746l6.559-2.585c-0.058-0.21-0.088-0.432-0.088-0.661 0-1.381 1.119-2.5 2.5-2.5s2.5 1.119 2.5 2.5c0 1.381-1.119 2.5-2.5 2.5-0.793 0-1.499-0.369-1.957-0.944l-6.641 2.617c0.064 0.265 0.098 0.542 0.098 0.827 0 0.259-0.028 0.512-0.082 0.756 0.021 0.009 0.041 0.020 0.061 0.032l5.404 3.245c0.514-0.915 1.493-1.533 2.617-1.533 1.657 0 3 1.343 3 3s-1.343 3-3 3c-1.657 0-3-1.343-3-3 0-0.172 0.014-0.341 0.042-0.505l-5.483-3.293c-0.598 1.073-1.744 1.798-3.059 1.798-1.933 0-3.5-1.567-3.5-3.5s1.567-3.5 3.5-3.5c1.294 0 2.423 0.702 3.029 1.746zM4.5 12c1.381 0 2.5-1.119 2.5-2.5s-1.119-2.5-2.5-2.5c-1.381 0-2.5 1.119-2.5 2.5s1.119 2.5 2.5 2.5zM16.5 6c0.828 0 1.5-0.672 1.5-1.5s-0.672-1.5-1.5-1.5c-0.828 0-1.5 0.672-1.5 1.5s0.672 1.5 1.5 1.5zM16 17c1.105 0 2-0.895 2-2s-0.895-2-2-2c-1.105 0-2 0.895-2 2s0.895 2 2 2z"></path>
</svg>
<svg id="icon-person" width="20" height="20" viewBox="0 0 20 20" x="0" y="192">
<path fill="#a9b3bc" d="M14.9 13.5c-0.8-0.6-2.9-1.7-2.9-1.7l-1.4 2.8-0.2-0.7 0.4-0.8-0.8-0.8-0.8 0.8 0.4 0.8-0.2 0.7-1.4-2.8c0 0-2.2 1-2.9 1.7-0.8 0.6-1.1 2.5-1.1 2.5h12c0 0-0.2-1.8-1.1-2.5v0 0 0zM10.1 11.6c1.8 0 2.9-2.5 2.9-3.9 0-1.3 0-3.7-2.9-3.7-3 0-3 2.4-3 3.7 0 1.4 1.2 3.9 3 3.9v0 0 0z"></path>
</svg>
<svg id="icon-date" width="20" height="20" viewBox="0 0 20 20" x="0" y="224">
<path fill="#a9b3bc" d="M14 6v-1h-1v-1h-1v2h-4v-2h-1v1h-1v1c-1.1 0-2 0.9-2 2v6c0 1.1 0.9 2 2 2h8c1.1 0 2-0.9 2-2v-6c0-1.1-0.9-2-2-2zM15 14c0 0.6-0.4 1-1 1h-8c-0.6 0-1-0.4-1-1v-5c0-0.6 0.4-1 1-1h8c0.6 0 1 0.4 1 1v5zM13 11h-1c-0.6 0-1 0.4-1 1v1c0 0.6 0.4 1 1 1h1c0.6 0 1-0.4 1-1v-1c0-0.6-0.4-1-1-1z"></path>
</svg>
<svg id="icon-delete" width="20" height="20" viewBox="0 0 20 20" x="0" y="256">
<path fill="#eb6655" d="M15.2 13.7l-1.4 1.4-4.2-4.2-4.2 4.2-1.4-1.4 4.2-4.2-4.4-4.2 1.4-1.4 4.2 4.2 4.2-4.2 1.4 1.4-4.2 4.2 4.4 4.2z"></path>
</svg>
<svg id="icon-goods" width="20" height="20" viewBox="0 0 20 20" x="0" y="288">
<path fill="#a9b3bc" d="M14.8 4h-9.6c-0.6 0-1.2 0.6-1.2 1.2v9.5c0 0.7 0.6 1.3 1.2 1.3h9.5c0.7 0 1.2-0.6 1.2-1.2v-9.6c0.1-0.6-0.5-1.2-1.1-1.2v0zM13.7 7.4v0 0c-0.3 1.8-1.9 3.2-3.7 3.2s-3.4-1.3-3.7-3.1v0 0c-0.2-0.2-0.3-0.4-0.3-0.6 0-0.3 0.3-0.6 0.6-0.6s0.6 0.3 0.6 0.6c0 0.2-0.1 0.3-0.2 0.4v0 0c0.2 1.6 1.5 2.7 3 2.7s2.8-1.1 3.1-2.6v0 0c-0.1-0.1-0.2-0.3-0.2-0.4 0-0.3 0.3-0.6 0.6-0.6v0 0 0c0.3 0 0.6 0.3 0.6 0.6-0.1 0.1-0.2 0.3-0.4 0.4v0z"></path>
</svg>
<svg id="icon-set" width="20" height="20" viewBox="0 0 20 20" x="0" y="320">
<path fill="#6ba5da" d="M9 4.083c-0.912 0.153-1.754 0.511-2.477 1.026l-1.473-1.473-1.414 1.414 1.473 1.473c-0.515 0.723-0.873 1.565-1.026 2.477h-2.083v2h2.083c0.153 0.912 0.511 1.754 1.026 2.477l-1.473 1.473 1.414 1.414 1.473-1.473c0.723 0.515 1.565 0.873 2.477 1.026v2.083h2v-2.083c0.912-0.153 1.754-0.511 2.477-1.026l1.473 1.473 1.414-1.414-1.473-1.473c0.515-0.723 0.873-1.565 1.026-2.477h2.083v-2h-2.083c-0.153-0.912-0.511-1.754-1.026-2.477l1.473-1.473-1.414-1.414-1.473 1.473c-0.723-0.515-1.565-0.873-2.477-1.026v-2.083h-2v2.083zM8 3.29v-1.296c0-0.549 0.443-0.993 1.009-0.993h1.981c0.557 0 1.009 0.445 1.009 0.993v1.296c0.466 0.139 0.911 0.324 1.33 0.552l0.917-0.917c0.388-0.388 1.016-0.389 1.416 0.011l1.401 1.401c0.394 0.394 0.399 1.028 0.011 1.416l-0.917 0.917c0.227 0.419 0.413 0.865 0.552 1.33h1.296c0.549 0 0.993 0.443 0.993 1.009v1.981c0 0.557-0.445 1.009-0.993 1.009h-1.296c-0.139 0.466-0.324 0.911-0.552 1.33l0.917 0.917c0.388 0.388 0.389 1.016-0.011 1.416l-1.401 1.401c-0.394 0.394-1.028 0.399-1.416 0.011l-0.917-0.917c-0.419 0.227-0.865 0.413-1.33 0.552v1.296c0 0.549-0.443 0.993-1.009 0.993h-1.981c-0.557 0-1.009-0.445-1.009-0.993v-1.296c-0.466-0.139-0.911-0.324-1.33-0.552l-0.917 0.917c-0.388 0.388-1.016 0.389-1.416-0.011l-1.401-1.401c-0.394-0.394-0.399-1.028-0.011-1.416l0.917-0.917c-0.227-0.419-0.413-0.865-0.552-1.33h-1.296c-0.549 0-0.993-0.443-0.993-1.009v-1.981c0-0.557 0.445-1.009 0.993-1.009h1.296c0.139-0.466 0.324-0.911 0.552-1.33l-0.917-0.917c-0.388-0.388-0.389-1.016 0.011-1.416l1.401-1.401c0.394-0.394 1.028-0.399 1.416-0.011l0.917 0.917c0.419-0.227 0.865-0.413 1.33-0.552zM10 14c-2.209 0-4-1.791-4-4s1.791-4 4-4c2.209 0 4 1.791 4 4s-1.791 4-4 4zM10 13c1.657 0 3-1.343 3-3s-1.343-3-3-3c-1.657 0-3 1.343-3 3s1.343 3 3 3z"></path>
</svg>
<svg id="icon-fresh" width="20" height="20" viewBox="0 0 20 20" x="0" y="352">
<path fill="#6ba5da" d="M12.401 13.196c1.593-1.198 2.078-3.424 1.056-5.195-0.138-0.239-0.056-0.545 0.183-0.683s0.545-0.056 0.683 0.183c1.305 2.26 0.645 5.115-1.45 6.588 0.186 0.115 0.283 0.344 0.226 0.557-0.071 0.267-0.336 0.428-0.617 0.352l-0.957-0.256c-0.135-0.036-0.243-0.126-0.307-0.239-0.066-0.101-0.088-0.238-0.050-0.379l0.256-0.957c0.072-0.269 0.355-0.427 0.614-0.358 0.192 0.051 0.329 0.202 0.363 0.388zM7.757 6.129l-0.014-0.025 0.019 0.005-0.005 0.019zM7.619 6.782c-1.62 1.192-2.119 3.437-1.090 5.22 0.138 0.239 0.056 0.545-0.183 0.683s-0.545 0.056-0.683-0.183c-1.307-2.264-0.642-5.125 1.461-6.595-0.168-0.12-0.252-0.336-0.198-0.538 0.071-0.267 0.336-0.428 0.617-0.352l0.957 0.256c0.135 0.036 0.243 0.126 0.307 0.239 0.066 0.101 0.088 0.238 0.050 0.379l-0.256 0.957c-0.072 0.269-0.355 0.427-0.614 0.358-0.204-0.055-0.346-0.222-0.368-0.423z"></path>
<path fill="#6ba5da" d="M2 2.995v14.010c0 1.102 0.893 1.995 1.994 1.995h12.012c1.1 0 1.994-0.893 1.994-1.995v-14.010c0-1.102-0.893-1.995-1.994-1.995h-12.012c-1.1 0-1.994 0.893-1.994 1.995zM3 3.001c0-0.553 0.45-1.001 1.007-1.001h11.986c0.556 0 1.007 0.445 1.007 1.001v13.998c0 0.553-0.45 1.001-1.007 1.001h-11.986c-0.556 0-1.007-0.445-1.007-1.001v-13.998z"></path>
</svg>
<svg id="icon-graph" width="20" height="20" viewBox="0 0 20 20" x="0" y="384">
<path fill="#8a949e" d="M2 18v-16h1v15h15v1h-16zM14 6h3v10h-3v-10zM9 5h4v11h-4v-11zM5 8h3v8h-3v-8zM5 8v0 0 0z"></path>
</svg>
<svg id="icon-out" width="20" height="20" viewBox="0 0 20 20" x="0" y="416">
  <path fill="#6ba5da" d="M13.003 1h-9.009c-1.1 0-1.994 0.893-1.994 1.995v14.010c0 1.102 0.893 1.995 1.994 1.995h12.012c1.1 0 1.994-0.893 1.994-1.995v-8.005h-1v7.999c0 0.553-0.45 1.001-1.007 1.001h-11.986c-0.556 0-1.007-0.445-1.007-1.001v-13.998c0-0.553 0.45-1.001 1.007-1.001h5.993v-1h3.003z"></path>
  <path fill="#6ba5da" d="M16.293 2h-3.802c-0.271 0-0.491-0.232-0.491-0.5 0-0.276 0.228-0.5 0.491-0.5h5.018c0.134 0 0.256 0.057 0.344 0.146 0.092 0.093 0.147 0.214 0.147 0.345v5.018c0 0.271-0.232 0.491-0.5 0.491-0.276 0-0.5-0.228-0.5-0.491v-3.802l-6.888 6.888c-0.196 0.196-0.518 0.19-0.708 0.001-0.195-0.195-0.196-0.511 0.001-0.708l6.888-6.888z"></path>
</svg>

<svg id="icon-line" width="20" height="20" viewBox="0 0 20 20" x="0" y="448">
<path fill="#8a949e" d="M4 9l4-6 4 6 3-3 2 9h-13v-6zM18 18h-16v-16h1v15h15v1z"></path>
</svg>
<svg id="icon-line-blue" width="20" height="20" viewBox="0 0 20 20" x="0" y="480">
  <path fill="#609fd6" d="M4 9l4-6 4 6 3-3 2 9h-13v-6zM18 18h-16v-16h1v15h15v1z"></path>
</svg>
<svg id="icon-table" width="20" height="20" viewBox="0 0 20 20" x="0" y="512">
  <path fill="#8a949e" d="M16.9 2h-13.8c-0.6 0-1.1 0.5-1.1 1.1v13.7c0 0.7 0.5 1.2 1.1 1.2h13.7c0.6 0 1.1-0.5 1.1-1.1v-13.8c0.1-0.6-0.4-1.1-1-1.1v0zM8 10v-2h4v2h-4zM12 11v2h-4v-2h4zM4 8h3v2h-4v-2h1zM3 11h4v2h-4v-2zM3 16v-2h4v2h-4zM8 16v-2h4v2h-4zM17 16h-4v-2h4v2zM17 13h-4v-2h4v2zM17 10h-4v-2h4v2z"></path>
</svg>
<svg id="icon-chart-blue" width="20" height="20" viewBox="0 0 20 20" x="0" y="544">
  <path fill="#609fd6" d="M18 10c0-2.1-0.8-4-2.1-5.4-0.1-0.1-0.2-0.2-0.3-0.3s-0.2-0.2-0.3-0.3c-1.4-1.3-3.3-2-5.3-2-4.4 0-8 3.6-8 8s3.6 8 8 8c4.4 0 8-3.6 8-8v0 0zM10 16c-3.4 0-6-2.6-6-6s2.6-6 6-6v6h6c0 3.4-2.6 6-6 6v0z"></path>
</svg>
<svg id="icon-graph-blue" width="20" height="20" viewBox="0 0 20 20" x="0" y="576">
  <path fill="#609fd6" d="M2 18v-16h1v15h15v1h-16zM14 6h3v10h-3v-10zM9 5h4v11h-4v-11zM5 8h3v8h-3v-8zM5 8v0 0 0z"></path>
</svg>
  
<svg id="icon-preview" width="20" height="20" viewBox="0 0 20 20" x="0" y="608">
  <path fill="#6ba5da" d="M2 2.995v14.010c0 1.102 0.893 1.995 1.994 1.995h12.012c1.1 0 1.994-0.893 1.994-1.995v-14.010c0-1.102-0.893-1.995-1.994-1.995h-12.012c-1.1 0-1.994 0.893-1.994 1.995zM3 3.001c0-0.553 0.45-1.001 1.007-1.001h11.986c0.556 0 1.007 0.445 1.007 1.001v13.998c0 0.553-0.45 1.001-1.007 1.001h-11.986c-0.556 0-1.007-0.445-1.007-1.001v-13.998z"></path>
  <path fill="#6ba5da" d="M11.93 10.723l3.198 3.198c0.192 0.192 0.183 0.511-0.006 0.701-0.195 0.195-0.515 0.192-0.701 0.006l-3.26-3.26c-0.623 0.4-1.364 0.633-2.16 0.633-2.209 0-4-1.791-4-4s1.791-4 4-4c2.209 0 4 1.791 4 4 0 1.052-0.406 2.009-1.070 2.723zM9 11c1.657 0 3-1.343 3-3s-1.343-3-3-3c-1.657 0-3 1.343-3 3s1.343 3 3 3z"></path>
</svg>

<svg id="icon-log" width="20" height="20" viewBox="0 0 20 20" x="0" y="640">
  <path fill="#6ba5da" d="M11 15h7.007c0.548 0 0.993-0.447 0.993-0.998v-11.003c0-0.551-0.445-0.998-0.993-0.998h-16.013c-0.548 0-0.993 0.447-0.993 0.998v11.003c0 0.551 0.445 0.998 0.993 0.998h7.007v2h2v-2zM2 3h16v9h-16v-9zM2 13h16v1h-16v-1zM7 17.5c0-0.276 0.228-0.5 0.491-0.5h5.018c0.271 0 0.491 0.232 0.491 0.5 0 0.276-0.228 0.5-0.491 0.5h-5.018c-0.271 0-0.491-0.232-0.491-0.5z"></path>
  <path fill="#6ba5da" d="M5.5 10c-1.381 0-2.5-1.119-2.5-2.5s1.119-2.5 2.5-2.5c1.381 0 2.5 1.119 2.5 2.5s-1.119 2.5-2.5 2.5zM5.5 9c0.828 0 1.5-0.672 1.5-1.5s-0.672-1.5-1.5-1.5c-0.828 0-1.5 0.672-1.5 1.5s0.672 1.5 1.5 1.5z"></path>
  <path fill="#6ba5da" d="M9.5 6h7c0.276 0 0.5 0.224 0.5 0.5s-0.224 0.5-0.5 0.5h-7c-0.276 0-0.5-0.224-0.5-0.5s0.224-0.5 0.5-0.5z"></path>
  <path fill="#6ba5da" d="M9.5 8h7c0.276 0 0.5 0.224 0.5 0.5s-0.224 0.5-0.5 0.5h-7c-0.276 0-0.5-0.224-0.5-0.5s0.224-0.5 0.5-0.5z"></path>
</svg>

<svg id="icon-供应商" width="20" height="20" viewBox="0 0 18 18" x="0" y="672">
  <path fill="#A9B3BC" d="M11.4498462,10.1327354 L11.4498462,9.34887892 L11.8947692,9.34887892 L11.8947692,8.73183857 L11.4498462,8.73183857 L11.4498462,8 L10.7815385,8 L10.7815385,8.73183857 L10.2332308,8.73183857 L10.2332308,8 L9.56492308,8 L9.56492308,8.73183857 L9.07799666,8.73183857 L9.07799666,9.34887892 L9.56492308,9.34887892 L9.56492308,10.1327354 L9,10.1327354 L9,10.7497758 L9.80492308,10.7497758 C9.79384615,10.7605381 9.76984615,10.7838565 9.73661538,10.8161435 C9.41723077,11.1713004 9.17169231,11.4152466 9,11.5497758 L9.53169231,12 C9.65723077,11.8780269 9.83446154,11.6932735 10.0633846,11.4493274 C10.2,11.3058296 10.3089231,11.1892377 10.3883077,11.0995516 L9.85661538,10.7497758 L11.04,10.7497758 L10.5766154,11.1156951 C10.7926154,11.3381166 11.0843077,11.6215247 11.4516923,11.9659193 L11.9833846,11.5156951 C11.9150769,11.470852 11.8227692,11.3883408 11.7083077,11.2663677 C11.4572308,11.0439462 11.2615385,10.8717489 11.1249231,10.7497758 L12,10.7497758 L12,10.1327354 L11.4498462,10.1327354 Z M10.7815385,10.1327354 L10.2332308,10.1327354 L10.2332308,9.34887892 L10.7815385,9.34887892 L10.7815385,10.1327354 Z" id="Shape"></path>
  <path fill="#A9B3BC" d="M8.23208077,8.01413678 C7.95665716,8.67395108 7.42257218,9.22152466 7,9.66636771 C7.01574803,9.78834081 7.12860892,10.5434978 7.14698163,10.6331839 C7.33517819,10.4520745 7.58408313,10.1667087 7.7066112,10.0427785 L7.7066112,12 L8.41332155,12 L8.41332155,9.06941648 C8.59179924,8.81291424 8.85301837,8.47892377 9,8.16681614 L8.23208077,8.01413678 Z" id="Shape"></path>
  <path fill="#A9B3BC" d="M4,4.75 C4,5.16421356 4.33578644,5.5 4.75,5.5 C5.16421356,5.5 5.5,5.16421356 5.5,4.75 C5.5,4.33578644 5.16421356,4 4.75,4 C4.33578644,4 4,4.33578644 4,4.75 L4,4.75 Z" id="Shape"></path>
  <path fill="#A9B3BC" d="M9.9256717,6.43602225 C10.2988821,6.43602225 10.6613061,6.49026426 11,6.59040334 L11,1.53337969 C11,0.686369958 10.290253,4.63236311e-16 9.41439498,4.63236311e-16 L1.58560502,0 C0.709747009,0 0,0.686369958 0,1.53337969 L0,10.4666203 C0,11.31363 0.709747009,12 1.58560502,12 L6.72857423,12 L6.78250637,11.9332406 C6.42223965,11.3803894 6.21082565,10.7273992 6.21082565,10.0264256 C6.21298294,8.04450626 7.87409296,6.43602225 9.9256717,6.43602225 Z M5.21200235,7.3581363 L4.31672877,7.3581363 C3.87448519,5.82058414 2.5261816,6.38386648 2.5261816,6.38386648 L2.05157874,5.63073713 C3.27260247,4.51043115 2.05157874,3.68636996 2.05157874,3.68636996 C2.05157874,3.68636996 2.06667974,3.66342142 2.51755246,2.93532684 C4.07727005,3.35465925 4.32104334,1.93810848 4.32104334,1.93810848 L5.2055305,1.93810848 C5.49029221,3.35257302 7.01765052,2.9394993 7.01765052,2.9394993 C7.01765052,2.9394993 7.01117866,2.95201669 7.45342224,3.66550765 C6.30143165,4.68984701 7.44695038,5.64534075 7.44695038,5.64534075 C7.44695038,5.64534075 7.44047853,5.65159944 7.00902138,6.3650904 C5.4924495,5.945758 5.21200235,7.3581363 5.21200235,7.3581363 Z" id="Shape"></path>
</svg>

</svg>
